<svg width="200" height="200" viewBox="0 0 200 200" fill="none" xmlns="http://www.w3.org/2000/svg">
<path d="M195.647 95.2058C193.592 92.7573 190.79 91.166 187.577 90.5712L186.068 70.09C187.557 70.0757 188.826 69.0035 189.086 67.5341L189.668 64.2338C190.291 60.6961 189.421 57.204 187.28 54.6532C185.142 52.1051 182.012 50.7013 178.465 50.7013H155.75L156.856 44.4314C157.17 42.6506 156.715 40.8725 155.609 39.5541C154.513 38.2488 152.866 37.5 151.09 37.5H39.2762C35.9697 37.5 32.926 40.0724 32.3467 43.3573L22.4542 99.4629C22.1578 101.146 23.2813 102.751 24.9641 103.047C25.1455 103.079 25.3261 103.094 25.5048 103.094C26.978 103.094 28.2837 102.038 28.5481 100.537L38.441 44.4314C38.5062 44.0621 38.9817 43.6877 39.2758 43.6877L150.703 43.6881L140.868 99.4629C140.571 101.146 141.695 102.751 143.378 103.047C145.059 103.343 146.666 102.22 146.962 100.537L147.675 96.4926H184.676C184.677 96.4926 184.678 96.4926 184.68 96.4926C184.681 96.4926 184.683 96.4926 184.684 96.4926C187.242 96.493 189.451 97.4482 190.907 99.1824C191.908 100.376 192.492 101.862 192.633 103.506H182.355C180.853 103.506 179.569 104.584 179.308 106.063L178.144 112.663C177.676 115.323 178.338 117.958 179.961 119.892C181.562 121.801 183.992 122.895 186.628 122.895H189.541L187.141 136.509H178.972C178.434 133.786 177.258 131.282 175.474 129.157C172.31 125.385 167.653 123.308 162.362 123.308C153.879 123.308 145.695 128.858 141.864 136.51H140.62L144.635 113.738C144.931 112.056 143.808 110.451 142.125 110.154C140.443 109.857 138.837 110.981 138.541 112.664L134.336 136.51H77.0592C76.5216 133.787 75.3448 131.283 73.5613 129.158C70.3964 125.386 65.7398 123.309 60.4491 123.309C51.9661 123.309 43.7819 128.859 39.9505 136.51L22.2048 136.51L23.4415 129.497H37.3472C39.0558 129.497 40.4414 128.112 40.4414 126.403C40.4414 124.694 39.0562 123.309 37.3472 123.309H4.34423C2.63559 123.309 1.25 124.694 1.25 126.403C1.25 128.111 2.63521 129.497 4.34423 129.497H17.1584L16.0527 135.767C15.7389 137.548 16.1935 139.326 17.2997 140.644C18.3951 141.95 20.0419 142.698 21.8181 142.698H37.9412C37.1025 147.947 38.363 152.892 41.5182 156.651C44.6831 160.423 49.3397 162.5 54.6304 162.5C65.1609 162.5 75.2356 153.951 77.0885 143.441C77.1322 143.192 77.1665 142.945 77.2012 142.698H139.854C139.015 147.946 140.276 152.891 143.431 156.651C146.596 160.423 151.253 162.5 156.544 162.5C167.074 162.5 177.149 153.95 179.002 143.441C179.045 143.192 179.08 142.945 179.114 142.698H189.738C191.24 142.698 192.524 141.62 192.785 140.141L198.605 107.137C199.394 102.658 198.344 98.4201 195.647 95.2058ZM148.767 90.3057L152.332 70.0911H179.864L181.354 90.3057H148.767ZM183.573 63.1597L183.442 63.903H153.422L154.659 56.8898H178.465C180.151 56.8898 181.598 57.5081 182.54 58.6308C183.516 59.7941 183.884 61.402 183.573 63.1597ZM70.9946 142.368C69.6392 150.057 62.2978 156.312 54.6304 156.312C51.2008 156.312 48.2273 155.02 46.2586 152.674C44.233 150.26 43.4611 146.982 44.0852 143.443C45.4411 135.753 52.782 129.498 60.4495 129.498C63.8791 129.498 66.8525 130.79 68.8213 133.136C70.8468 135.55 71.6187 138.828 70.9946 142.368ZM172.907 142.368C171.552 150.057 164.211 156.312 156.543 156.312C153.113 156.312 150.14 155.02 148.171 152.674C146.146 150.26 145.374 146.981 145.998 143.442C147.353 135.753 154.695 129.497 162.362 129.497C165.791 129.497 168.765 130.79 170.734 133.136C172.76 135.55 173.531 138.828 172.907 142.368ZM190.633 116.709H186.628V116.708C185.803 116.708 185.136 116.434 184.702 115.916C184.25 115.378 184.086 114.605 184.238 113.74L184.952 109.696H191.869L190.633 116.709Z" fill="black"/>
<path d="M62.1328 139.031C61.0242 137.71 59.3574 136.952 57.5594 136.952C54.2129 136.952 51.1324 139.556 50.5461 142.88C50.2285 144.683 50.6887 146.482 51.8082 147.817C52.9168 149.138 54.5836 149.896 56.3813 149.896C59.7277 149.896 62.8082 147.292 63.3945 143.968C63.7125 142.165 63.2527 140.366 62.1328 139.031Z" fill="black"/>
<path d="M165.278 139.031C164.169 137.71 162.502 136.952 160.705 136.952C157.358 136.952 154.278 139.556 153.692 142.88C153.374 144.683 153.834 146.482 154.953 147.817C156.062 149.138 157.729 149.896 159.527 149.896C162.873 149.896 165.953 147.292 166.54 143.968C166.858 142.165 166.398 140.366 165.278 139.031Z" fill="black"/>
<path d="M126.318 123.591H86.6371C84.9078 123.591 83.5055 124.993 83.5055 126.722C83.5055 128.452 84.9074 129.854 86.6371 129.854H126.318C128.047 129.854 129.45 128.452 129.45 126.722C129.449 124.993 128.047 123.591 126.318 123.591Z" fill="black"/>
<path d="M69.9359 110.23H12.168C10.4387 110.23 9.03632 111.632 9.03632 113.362C9.03632 115.091 10.4379 116.493 12.168 116.493H69.9359C71.6652 116.493 73.0676 115.091 73.0676 113.362C73.0676 111.632 71.6656 110.23 69.9359 110.23Z" fill="black"/>
<path d="M129.737 97.631L118.143 87.6103C116.835 86.4799 114.857 86.6232 113.726 87.9318C112.595 89.2404 112.739 91.2178 114.048 92.349L119.277 96.8693H39.8738C38.1445 96.8693 36.7422 98.2713 36.7422 100.001C36.7422 101.73 38.1441 103.133 39.8738 103.133H117.291L110.832 107.412C109.39 108.366 108.996 110.31 109.951 111.751C110.554 112.661 111.55 113.154 112.564 113.154C113.158 113.154 113.759 112.985 114.291 112.632L129.419 102.612C130.236 102.071 130.752 101.179 130.814 100.201C130.877 99.2221 130.479 98.2713 129.737 97.631Z" fill="black"/>
</svg>
