<svg width="200" height="200" viewBox="0 0 200 200" fill="none" xmlns="http://www.w3.org/2000/svg">
<g clip-path="url(#clip0_16_203)">
<path d="M115.664 134.621C116.67 134.621 117.838 134.685 119.099 134.749C120.283 134.805 121.588 134.861 122.942 134.733L135.182 163.019H108.791L102.892 152.119C101.614 149.778 98.2542 149.778 96.9866 152.119L91.0809 163.019H64.6915L76.9422 134.733C78.3306 134.871 79.664 134.805 80.8764 134.749C83.3938 134.621 85.5538 134.509 86.7822 134.841C88.0249 135.175 89.8311 136.352 91.9484 137.71C94.0604 139.081 96.6151 140.72 99.9858 140.72C103.356 140.72 105.92 139.081 108.03 137.71C110.142 136.35 111.957 135.175 113.189 134.841V134.825C113.81 134.667 114.652 134.61 115.664 134.621ZM104.386 39.0348C106.302 40.2775 108.487 41.9717 111.46 42.7699C114.432 43.5664 117.164 43.1841 119.442 43.0757C121.708 42.9548 123.358 43.1113 124.21 43.6001C125.07 44.1015 126.025 45.4455 127.061 47.4615C128.1 49.4917 129.138 52.0641 131.312 54.2384C133.499 56.4144 136.055 57.4526 138.073 58.489C140.101 59.5272 141.451 60.4801 141.952 61.3424C142.444 62.1939 142.59 63.8312 142.473 66.0997C142.361 68.377 141.973 71.1201 142.779 74.0908C143.573 77.0633 145.278 79.2393 146.519 81.1575C147.751 83.0668 148.436 84.5833 148.436 85.5646C148.436 86.5459 147.751 88.0464 146.519 89.9646C145.28 91.8704 143.575 94.0464 142.779 97.0188C141.98 99.9913 142.363 102.741 142.473 105.01C142.59 107.287 142.444 108.928 141.952 109.78C141.452 110.633 140.101 111.586 138.073 112.621C136.055 113.659 133.5 114.704 131.312 116.88C129.138 119.056 128.1 121.621 127.061 123.65C126.055 125.621 125.127 126.928 124.283 127.445L123.164 127.863C122.247 128.068 121.004 128.121 119.442 128.048C117.164 127.927 114.441 127.549 111.46 128.345C108.487 129.143 106.304 130.837 104.386 132.077C102.476 133.309 100.976 134.004 99.9858 134.004C99.0026 134.004 97.504 133.309 95.5858 132.077C93.68 130.837 91.4951 129.143 88.5226 128.345C85.5395 127.549 82.8071 127.929 80.5404 128.048C78.8729 128.132 77.5573 128.068 76.624 127.826L75.7351 127.493C74.8906 126.985 73.9395 125.659 72.912 123.652C71.8738 121.621 70.8355 119.058 68.6613 116.882C66.4835 114.706 63.9289 113.661 61.9004 112.622C59.872 111.586 58.5226 110.635 58.0284 109.781C57.5395 108.93 57.3902 107.289 57.5004 105.012C57.6213 102.743 58 100.004 57.2053 97.0206C56.4106 94.0481 54.6951 91.8721 53.4649 89.9664C52.2222 88.0481 51.5484 86.5495 51.5484 85.5664C51.5484 84.585 52.2222 83.0686 53.4649 81.1593C54.6933 79.241 56.4089 77.065 57.2053 74.0926C58 71.1237 57.6213 68.3895 57.5004 66.1121C57.3884 63.8437 57.5378 62.1957 58.0284 61.3459C58.5209 60.4819 59.872 59.5308 61.9004 58.4926C63.9289 57.4561 66.4835 56.4179 68.6613 54.2419C70.8355 52.0677 71.8738 49.4953 72.912 47.465C73.9466 45.4473 74.912 44.1033 75.7635 43.6037C76.6151 43.1148 78.2631 42.9566 80.5422 43.0793C82.8089 43.1877 85.552 43.5699 88.5244 42.7735C91.4969 41.9753 93.68 40.281 95.5875 39.0384C97.504 37.8081 99.0044 37.113 99.9875 37.113C100.976 37.1113 102.476 37.8046 104.386 39.0348ZM99.9858 30.3877C96.6151 30.3877 94.0586 32.025 91.9484 33.3975C89.8311 34.7681 88.0249 35.9539 86.7822 36.2846C85.5538 36.6099 83.3938 36.489 80.8764 36.361C78.3644 36.2401 75.3191 36.0908 72.4035 37.7779C69.4862 39.4633 68.0978 42.1673 66.9493 44.4073C65.8026 46.6473 64.8106 48.5833 63.9146 49.4917C63.0044 50.3877 61.0809 51.3619 58.8391 52.5086C56.5991 53.6552 53.9058 55.0544 52.2204 57.9824C50.5333 60.8979 50.6649 63.9237 50.7929 66.4446C50.9138 68.9548 51.0435 71.1113 50.7093 72.3521C50.3751 73.5841 49.1911 75.3886 47.8204 77.5095C46.4586 79.6215 44.8302 82.1939 44.8302 85.5628C44.8302 88.9335 46.4586 91.4881 47.8204 93.6001C49.1911 95.7193 50.3769 97.5255 50.7093 98.7681C51.0435 99.9984 50.9138 102.155 50.7929 104.674C50.6649 107.182 50.5333 110.21 52.2204 113.125C53.904 116.053 56.5991 117.46 58.8391 118.599C61.0826 119.748 63.0062 120.718 63.9146 121.627C64.8106 122.525 65.8044 124.459 66.9493 126.701C67.8489 128.459 68.9138 130.505 70.7484 132.117L56.4978 165.035C55.5324 167.246 57.1538 169.73 59.5715 169.739H93.072C94.3111 169.739 95.4435 169.063 96.0266 167.979L99.9324 160.766L103.849 167.979C104.432 169.061 105.572 169.739 106.804 169.739H140.302C142.725 169.739 144.357 167.257 143.385 165.035L129.152 132.181C131.031 130.562 132.114 128.487 133.031 126.701C134.18 124.459 135.163 122.525 136.059 121.627C136.969 120.718 138.903 119.746 141.141 118.599C143.385 117.46 146.068 116.053 147.753 113.125C149.44 110.21 149.319 107.181 149.191 104.674C149.06 102.155 148.932 99.9984 149.264 98.7681C149.598 97.5255 150.791 95.7193 152.153 93.6001C153.524 91.4881 155.143 88.9335 155.143 85.5628C155.143 82.1921 153.525 79.6215 152.153 77.5095C150.791 75.3886 149.596 73.5841 149.264 72.3521C148.93 71.1219 149.06 68.9548 149.191 66.4446C149.319 63.9255 149.442 60.8979 147.753 57.9824C146.069 55.0544 143.385 53.6552 141.141 52.5086C138.901 51.3601 136.967 50.3877 136.059 49.4917C135.163 48.5833 134.18 46.6455 133.031 44.4073C131.884 42.1673 130.496 39.4633 127.57 37.7779C124.652 36.0908 121.607 36.2401 119.097 36.3628C116.58 36.4908 114.42 36.6117 113.191 36.2864C111.959 35.9557 110.142 34.7699 108.032 33.3993C105.92 32.0268 103.358 30.3877 99.9858 30.3877Z" fill="black"/>
<path d="M117.22 64.8695C116.348 64.8873 115.525 65.2482 114.914 65.8793L80.2258 100.368C78.864 101.664 78.8373 103.831 80.1636 105.166C81.4862 106.5 83.6533 106.482 84.9582 105.129L119.643 70.6384C121.847 68.5087 120.281 64.786 117.22 64.8695Z" fill="black"/>
<path d="M90.1529 68.8233C92.1245 70.786 92.1351 73.842 90.1814 75.7851C88.2258 77.7425 85.136 77.7425 83.1645 75.7691C81.1929 73.8047 81.1929 70.738 83.1431 68.7949C85.0969 66.8518 88.1707 66.8607 90.1529 68.8233ZM94.9138 64.082C90.3751 59.5647 82.9209 59.5451 78.3858 64.0536C73.8365 68.5709 73.8578 75.9878 78.4036 80.5087C82.9422 85.026 90.4036 85.0456 94.9494 80.5247C99.488 76.0162 99.4596 68.5994 94.9209 64.0802L94.9138 64.082Z" fill="black"/>
<path d="M116.708 95.2286C118.679 97.193 118.679 100.265 116.725 102.212C114.773 104.157 111.691 104.157 109.719 102.194C107.737 100.231 107.737 97.1575 109.691 95.2144C111.653 93.2659 114.736 93.2659 116.708 95.2286ZM121.476 90.4979C116.93 85.9806 109.468 85.961 104.93 90.4819C100.391 94.9904 100.402 102.416 104.948 106.926C109.486 111.444 116.958 111.463 121.497 106.955C126.032 102.436 126.014 95.0082 121.476 90.4979Z" fill="black"/>
</g>
<defs>
<clipPath id="clip0_16_203">
<rect width="110" height="140" fill="white" transform="translate(45 30)"/>
</clipPath>
</defs>
</svg>
