<svg width="200" height="200" viewBox="0 0 200 200" fill="none" xmlns="http://www.w3.org/2000/svg">
<path d="M41.2474 92.1594L41.223 92.4473C41.136 94.8372 41.8669 96.9637 43.2838 98.4349C45.3631 100.589 48.7136 101.083 51.9214 99.6346L64.4027 92.846L76.6464 99.5182L76.8865 99.6365C78.127 100.197 79.3739 100.482 80.5866 100.482C82.4987 100.482 84.2503 99.7559 85.5231 98.4344C86.9421 96.9632 87.6719 94.8367 87.5839 92.4468L85.9397 78.4128L95.168 68.933L95.4509 68.6023C97.2144 66.281 97.7504 63.5649 96.922 61.1515C96.0947 58.7372 94.0041 56.924 91.191 56.1732L77.162 53.8991L71.1436 41.7837L70.9322 41.4208C69.3045 38.9309 66.8613 37.5005 64.2307 37.5005C61.7433 37.5005 59.3648 38.8046 57.7057 41.0782L50.3976 53.8907L37.9182 55.9858L37.5284 56.0738C34.7358 56.8718 32.6744 58.7213 31.8655 61.1476C31.0581 63.5733 31.6025 66.2919 33.3586 68.6008L42.8697 78.4113L41.2474 92.1594ZM38.9285 64.1431C38.6362 63.714 38.6153 63.447 38.6292 63.4018C38.6456 63.3565 38.8241 63.1527 39.3278 62.9817L54.9194 60.363L63.5665 45.1482C63.911 44.7211 64.1745 44.6306 64.2287 44.6306C64.2789 44.6306 64.5375 44.7325 64.8656 45.1795L72.4069 60.3565L89.4941 63.1025C89.955 63.2477 90.1499 63.4217 90.1728 63.449C90.1797 63.5107 90.136 63.7622 89.8759 64.1451L78.4601 75.8761L80.4603 92.8301C80.4603 93.0504 80.4394 93.2199 80.415 93.3362C80.3012 93.3178 80.1356 93.2746 79.9184 93.1841L64.4007 84.7295L48.8841 93.1841C48.6728 93.2721 48.5092 93.3153 48.3874 93.3337C48.3621 93.2179 48.3422 93.0484 48.3422 92.8301L50.3434 75.8761L38.9285 64.1431Z" fill="black"/>
<path d="M162.409 56.1712L148.379 53.8971L142.362 41.7813L142.148 41.4203C140.522 38.9304 138.078 37.5 135.449 37.5C132.962 37.5 130.583 38.8041 128.924 41.0777L121.615 53.8902L109.136 55.9853L108.746 56.0733C105.955 56.8713 103.892 58.7208 103.084 61.1471C102.277 63.5733 102.82 66.2914 104.576 68.6003L114.088 78.4108L112.465 92.1589L112.44 92.4468C112.352 94.8367 113.085 96.9632 114.5 98.4344C116.58 100.589 119.933 101.083 123.137 99.6341L135.618 92.8455L147.863 99.5177L148.104 99.6361C149.343 100.196 150.592 100.482 151.803 100.482C153.715 100.482 155.466 99.7554 156.741 98.4339C158.159 96.9627 158.887 94.8362 158.802 92.4463L157.156 78.4123L166.385 68.9325L166.667 68.6018C168.431 66.2805 168.967 63.5644 168.139 61.151C167.314 58.7377 165.221 56.922 162.409 56.1712ZM161.097 64.1431L149.679 75.8741L151.681 92.8281C151.681 93.0489 151.658 93.2179 151.634 93.3343C151.52 93.3159 151.354 93.2726 151.138 93.1821L135.619 84.728L120.105 93.1821C119.893 93.2691 119.729 93.3124 119.608 93.3318C119.58 93.2144 119.562 93.0464 119.562 92.8281L121.561 75.8741L110.145 64.1411C109.853 63.7105 109.832 63.445 109.846 63.3998C109.862 63.3546 110.041 63.1507 110.544 62.9797L126.137 60.361L134.783 45.1462C135.126 44.7191 135.391 44.6286 135.446 44.6286C135.496 44.6286 135.755 44.731 136.082 45.1775L143.624 60.3541L160.711 63.1C161.173 63.2452 161.368 63.4192 161.39 63.447C161.401 63.5082 161.355 63.7603 161.097 64.1431Z" fill="black"/>
<path d="M125.41 118.192L111.383 115.918L105.364 103.803L105.155 103.439C103.527 100.949 101.085 99.519 98.4549 99.519C95.966 99.519 93.5874 100.823 91.9298 103.098L84.6207 115.909L72.1394 118.007L71.7521 118.095C68.9629 118.891 66.9001 120.74 66.0927 123.165C65.2817 125.592 65.8257 128.309 67.5822 130.618L77.0933 140.429L75.47 154.179L75.4472 154.467C75.3587 156.857 76.091 158.982 77.5065 160.453C79.5882 162.612 82.9412 163.098 86.1466 161.653L98.6279 154.866L110.868 161.537L111.107 161.653C112.348 162.217 113.597 162.5 114.807 162.5C116.722 162.5 118.471 161.771 119.745 160.453C121.163 158.982 121.894 156.857 121.806 154.467L120.161 140.433L129.391 130.952L129.672 130.622C131.435 128.3 131.974 125.582 131.143 123.17C130.317 120.758 128.227 118.942 125.41 118.192ZM124.101 126.167L112.684 137.897L114.684 154.85C114.684 155.075 114.664 155.239 114.64 155.358C114.524 155.337 114.362 155.295 114.143 155.205L98.6274 146.749L83.1098 155.205C82.895 155.293 82.7339 155.334 82.6131 155.353C82.5887 155.237 82.5678 155.07 82.5678 154.847L84.5675 137.894L73.1502 126.162C72.8588 125.731 72.837 125.466 72.8504 125.419C72.8703 125.373 73.0458 125.169 73.5499 124.999L89.1406 122.38L97.7876 107.167C98.1322 106.74 98.3957 106.647 98.4514 106.647C98.5016 106.647 98.7601 106.749 99.0873 107.197L106.63 122.372L123.714 125.119C124.176 125.265 124.369 125.437 124.394 125.465C124.405 125.531 124.361 125.782 124.101 126.167Z" fill="black"/>
</svg>
