<svg width="163" height="141" viewBox="0 0 163 141" fill="none" xmlns="http://www.w3.org/2000/svg">
<g clip-path="url(#clip0_22_13)">
<mask id="mask0_22_13" style="mask-type:luminance" maskUnits="userSpaceOnUse" x="0" y="-1" width="164" height="109">
<path d="M67.7081 -0.0540342L0.0768305 -0.0445764L0.0721436 107.714H67.7081V107.708L67.7095 107.71V93.9569L81.5378 107.714L95.3249 93.9993V107.714H163.016L163.014 -0.0445764L95.3627 -0.050427L81.5378 13.7023L67.7081 -0.0540342Z" fill="white"/>
</mask>
<g mask="url(#mask0_22_13)">
<mask id="mask1_22_13" style="mask-type:luminance" maskUnits="userSpaceOnUse" x="-55" y="-82" width="273" height="271">
<path d="M-54.0902 53.8302L81.5443 -81.1084L217.179 53.8302L81.5443 188.768L-54.0902 53.8302Z" fill="white"/>
</mask>
<g mask="url(#mask1_22_13)">
<path d="M0.0565186 107.728V-0.0652436H67.7242V-0.042721H67.7468V-0.0201984H67.7694V0.0023242H67.7921V0.0248468H67.8147V0.0473694H67.8374V0.069892H67.86V0.0924146H67.8826V0.114937H67.9053V0.13746H67.9279V0.159982H67.9506V0.182505H67.9732V0.205028H67.9958V0.22755H68.0185V0.250073H68.0411V0.272596H68.0637V0.295118H68.0864V0.317641H68.109V0.340163H68.1317V0.362686H68.1543V0.385209H68.1769V0.407731H68.1996V0.430254H68.2222V0.452776H68.2449V0.475299H68.2675V0.497822H68.2901V0.520344H68.3128V0.542867H68.3354V0.565389H68.3581V0.587912H68.3807V0.610435H68.4033V0.632957H68.426V0.65548H68.4486V0.678002H68.4712V0.700525H68.4939V0.723048H68.5165V0.74557H68.5392V0.768093H68.5618V0.790616H68.5844V0.813138H68.6071V0.835661H68.6297V0.858183H68.6524V0.880706H68.675V0.903229H68.6976V0.925751H68.7203V0.948274H68.7429V0.970796H68.7656V0.993319H68.7882V1.01584H68.8108V1.03836H68.8335V1.06089H68.8561V1.08341H68.8787V1.10593H68.9014V1.12845H68.924V1.15098H68.9467V1.1735H68.9693V1.19602H68.9919V1.21855H69.0146V1.24107H69.0372V1.26359H69.0599V1.28611H69.0825V1.30864H69.1051V1.33116H69.1278V1.35368H69.1504V1.3762H69.1731V1.39873H69.1957V1.42125H69.2183V1.44377H69.241V1.46629H69.2636V1.48882H69.2862V1.51134H69.3089V1.53386H69.3315V1.55638H69.3542V1.57891H69.3768V1.60143H69.3994V1.62395H69.4221V1.64647H69.4447V1.669H69.4674V1.69152H69.49V1.71404H69.5126V1.73657H69.5353V1.75909H69.5579V1.78161H69.5806V1.80413H69.6032V1.82666H69.6258V1.84918H69.6485V1.8717H69.6711V1.89422H69.6937V1.91675H69.7164V1.93927H69.739V1.96179H69.7617V1.98431H69.7843V2.00684H69.8069V2.02936H69.8296V2.05188H69.8522V2.0744H69.8749V2.09693H69.8975V2.11945H69.9201V2.14197H69.9428V2.16449H69.9654V2.18702H69.9881V2.20954H70.0107V2.23206H70.0333V2.25459H70.056V2.27711H70.0786V2.29963H70.1012V2.32215H70.1239V2.34468H70.1465V2.3672H70.1692V2.38972H70.1918V2.41224H70.2144V2.43477H70.2371V2.45729H70.2597V2.47981H70.2824V2.50233H70.305V2.52486H70.3276V2.54738H70.3503V2.5699H70.3729V2.59242H70.3956V2.61495H70.4182V2.63747H70.4408V2.65999H70.4635V2.68251H70.4861V2.70504H70.5087V2.72756H70.5314V2.75008H70.554V2.77261H70.5767V2.79513H70.5993V2.81765H70.6219V2.84017H70.6446V2.8627H70.6672V2.88522H70.6899V2.90774H70.7125V2.93026H70.7351V2.95279H70.7578V2.97531H70.7804V2.99783H70.8031V3.02035H70.8257V3.04288H70.8483V3.0654H70.871V3.08792H70.8936V3.11044H70.9162V3.13297H70.9389V3.15549H70.9615V3.17801H70.9842V3.20053H71.0068V3.22306H71.0294V3.24558H71.0521V3.2681H71.0747V3.29063H71.0974V3.31315H71.12V3.33567H71.1426V3.35819H71.1653V3.38072H71.1879V3.40324H71.2106V3.42576H71.2332V3.44828H71.2558V3.47081H71.2785V3.49333H71.3011V3.51585H71.3237V3.53837H71.3464V3.5609H71.369V3.58342H71.3917V3.60594H71.4143V3.62846H71.4369V3.65099H71.4596V3.67351H71.4822V3.69603H71.5049V3.71855H71.5275V3.74108H71.5501V3.7636H71.5728V3.78612H71.5954V3.80865H71.6181V3.83117H71.6407V3.85369H71.6633V3.87621H71.686V3.89874H71.7086V3.92126H71.7312V3.94378H71.7539V3.9663H71.7765V3.98883H71.7992V4.01135H71.8218V4.03387H71.8444V4.05639H71.8671V4.07892H71.8897V4.10144H71.9124V4.12396H71.935V4.14648H71.9576V4.16901H71.9803V4.19153H72.0029V4.21405H72.0256V4.23657H72.0482V4.2591H72.0708V4.28162H72.0935V4.30414H72.1161V4.32667H72.1387V4.34919H72.1614V4.37171H72.184V4.39423H72.2067V4.41676H72.2293V4.43928H72.2519V4.4618H72.2746V4.48432H72.2972V4.50685H72.3199V4.52937H72.3425V4.55189H72.3651V4.57441H72.3878V4.59694H72.4104V4.61946H72.4331V4.64198H72.4557V4.6645H72.4783V4.68703H72.501V4.70955H72.5236V4.73207H72.5462V4.75459H72.5689V4.77712H72.5915V4.79964H72.6142V4.82216H72.6368V4.84469H72.6594V4.86721H72.6821V4.88973H72.7047V4.91225H72.7274V4.93478H72.75V4.9573H72.7726V4.97982H72.7953V5.00234H72.8179V5.02487H72.8406V5.04739H72.8632V5.06991H72.8858V5.09243H72.9085V5.11496H72.9311V5.13748H72.9537V5.16H72.9764V5.18252H72.999V5.20505H73.0217V5.22757H73.0443V5.25009H73.0669V5.27261H73.0896V5.29514H73.1122V5.31766H73.1349V5.34018H73.1575V5.36271H73.1801V5.38523H73.2028V5.40775H73.2254V5.43027H73.2481V5.4528H73.2707V5.47532H73.2933V5.49784H73.316V5.52036H73.3386V5.54289H73.3612V5.56541H73.3839V5.58793H73.4065V5.61045H73.4292V5.63298H73.4518V5.6555H73.4744V5.67802H73.4971V5.70054H73.5197V5.72307H73.5424V5.74559H73.565V5.76811H73.5876V5.79063H73.6103V5.81316H73.6329V5.83568H73.6556V5.8582H73.6782V5.88073H73.7008V5.90325H73.7235V5.92577H73.7461V5.94829H73.7687V5.97082H73.7914V5.99334H73.814V6.01586H73.8367V6.03838H73.8593V6.06091H73.8819V6.08343H73.9046V6.10595H73.9272V6.12847H73.9499V6.151H73.9725V6.17352H73.9951V6.19604H74.0178V6.21856H74.0404V6.24109H74.0631V6.26361H74.0857V6.28613H74.1083V6.30865H74.131V6.33118H74.1536V6.3537H74.1762V6.37622H74.1989V6.39875H74.2215V6.42127H74.2442V6.44379H74.2668V6.46631H74.2894V6.48884H74.3121V6.51136H74.3347V6.53388H74.3574V6.5564H74.38V6.57893H74.4026V6.60145H74.4253V6.62397H74.4479V6.64649H74.4706V6.66902H74.4932V6.69154H74.5158V6.71406H74.5385V6.73658H74.5611V6.75911H74.5837V6.78163H74.6064V6.80415H74.629V6.82667H74.6517V6.8492H74.6743V6.87172H74.6969V6.89424H74.7196V6.91677H74.7422V6.93929H74.7649V6.96181H74.7875V6.98433H74.8101V7.00686H74.8328V7.02938H74.8554V7.0519H74.8781V7.07442H74.9007V7.09695H74.9233V7.11947H74.946V7.14199H74.9686V7.16451H74.9912V7.18704H75.0139V7.20956H75.0365V7.23208H75.0592V7.2546H75.0818V7.27713H75.1044V7.29965H75.1271V7.32217H75.1497V7.34469H75.1724V7.36722H75.195V7.38974H75.2176V7.41226H75.2403V7.43479H75.2629V7.45731H75.2856V7.47983H75.3082V7.50235H75.3308V7.52488H75.3535V7.5474H75.3761V7.56992H75.3987V7.59244H75.4214V7.61497H75.444V7.63749H75.4667V7.66001H75.4893V7.68253H75.5119V7.70506H75.5346V7.72758H75.5572V7.7501H75.5799V7.77262H75.6025V7.79515H75.6251V7.81767H75.6478V7.84019H75.6704V7.86271H75.6931V7.88524H75.7157V7.90776H75.7383V7.93028H75.761V7.95281H75.7836V7.97533H75.8062V7.99785H75.8289V8.02037H75.8515V8.0429H75.8742V8.06542H75.8968V8.08794H75.9194V8.11046H75.9421V8.13299H75.9647V8.15551H75.9874V8.17803H76.01V8.20055H76.0326V8.22308H76.0553V8.2456H76.0779V8.26812H76.1006V8.29064H76.1232V8.31317H76.1458V8.33569H76.1685V8.35821H76.1911V8.38074H76.2137V8.40326H76.2364V8.42578H76.259V8.4483H76.2817V8.47083H76.3043V8.49335H76.3269V8.51587H76.3496V8.53839H76.3722V8.56092H76.3949V8.58344H76.4175V8.60596H76.4401V8.62848H76.4628V8.65101H76.4854V8.67353H76.5081V8.69605H76.5307V8.71857H76.5533V8.7411H76.576V8.76362H76.5986V8.78614H76.6212V8.80866H76.6439V8.83119H76.6665V8.85371H76.6892V8.87623H76.7118V8.89876H76.7344V8.92128H76.7571V8.9438H76.7797V8.96632H76.8024V8.98885H76.825V9.01137H76.8476V9.03389H76.8703V9.05641H76.8929V9.07894H76.9156V9.10146H76.9382V9.12398H76.9608V9.1465H76.9835V9.16903H77.0061V9.19155H77.0287V9.21407H77.0514V9.23659H77.074V9.25912H77.0967V9.28164H77.1193V9.30416H77.1419V9.32668H77.1646V9.34921H77.1872V9.37173H77.2099V9.39425H77.2325V9.41678H77.2551V9.4393H77.2778V9.46182H77.3004V9.48434H77.3231V9.50687H77.3457V9.52939H77.3683V9.55191H77.391V9.57443H77.4136V9.59696H77.4362V9.61948H77.4589V9.642H77.4815V9.66452H77.5042V9.68705H77.5268V9.70957H77.5494V9.73209H77.5721V9.75461H77.5947V9.77714H77.6174V9.79966H77.64V9.82218H77.6626V9.8447H77.6853V9.86723H77.7079V9.88975H77.7306V9.91227H77.7532V9.9348H77.7758V9.95732H77.7985V9.97984H77.8211V10.0024H77.8437V10.0249H77.8664V10.0474H77.889V10.0699H77.9117V10.0925H77.9343V10.115H77.9569V10.1375H77.9796V10.16H78.0022V10.1825H78.0249V10.2051H78.0475V10.2276H78.0701V10.2501H78.0928V10.2726H78.1154V10.2952H78.1381V10.3177H78.1607V10.3402H78.1833V10.3627H78.206V10.3852H78.2286V10.4078H78.2512V10.4303H78.2739V10.4528H78.2965V10.4753H78.3192V10.4979H78.3418V10.5204H78.3644V10.5429H78.3871V10.5654H78.4097V10.588H78.4324V10.6105H78.455V10.633H78.4776V10.6555H78.5003V10.678H78.5229V10.7006H78.5456V10.7231H78.5682V10.7456H78.5908V10.7681H78.6135V10.7907H78.6361V10.8132H78.6587V10.8357H78.6814V10.8582H78.704V10.8807H78.7267V10.9033H78.7493V10.9258H78.7719V10.9483H78.7946V10.9708H78.8172V10.9934H78.8399V11.0159H78.8625V11.0384H78.8851V11.0609H78.9078V11.0834H78.9304V11.106H78.9531V11.1285H78.9757V11.151H78.9983V11.1735H79.021V11.1961H79.0436V11.2186H79.0662V11.2411H79.0889V11.2636H79.1115V11.2862H79.1342V11.3087H79.1568V11.3312H79.1794V11.3537H79.2021V11.3762H79.2247V11.3988H79.2474V11.4213H79.27V11.4438H79.2926V11.4663H79.3153V11.4889H79.3379V11.5114H79.3606V11.5339H79.3832V11.5564H79.4058V11.5789H79.4285V11.6015H79.4511V11.624H79.4737V11.6465H79.4964V11.669H79.519V11.6916H79.5417V11.7141H79.5643V11.7366H79.5869V11.7591H79.6096V11.7816H79.6322V11.8042H79.6549V11.8267H79.6775V11.8492H79.7001V11.8717H79.7228V11.8943H79.7454V11.9168H79.7681V11.9393H79.7907V11.9618H79.8133V11.9844H79.836V12.0069H79.8586V12.0294H79.8812V12.0519H79.9039V12.0744H79.9265V12.097H79.9492V12.1195H79.9718V12.142H79.9944V12.1645H80.0171V12.1871H80.0397V12.2096H80.0624V12.2321H80.085V12.2546H80.1076V12.2771H80.1303V12.2997H80.1529V12.3222H80.1756V12.3447H80.1982V12.3672H80.2208V12.3898H80.2435V12.4123H80.2661V12.4348H80.2887V12.4573H80.3114V12.4798H80.334V12.5024H80.3567V12.5249H80.3793V12.5474H80.4019V12.5699H80.4246V12.5925H80.4472V12.615H80.4699V12.6375H80.4925V12.66H80.5151V12.6826H80.5378V12.7051H80.5604V12.7276H80.5831V12.7501H80.6057V12.7726H80.6283V12.7952H80.651V12.8177H80.6736V12.8402H80.6962V12.8627H80.7189V12.8853H80.7415V12.9078H80.7642V12.9303H80.7868V12.9528H80.8094V12.9753H80.8321V12.9979H80.8547V13.0204H80.8774V13.0429H80.9V13.0654H80.9226V13.088H80.9453V13.1105H80.9679V13.133H80.9906V13.1555H81.0132V13.1781H81.0358V13.2006H81.0585V13.2231H81.0811V13.2456H81.1037V13.2681H81.1264V13.2907H81.149V13.3132H81.1717V13.3357H81.1943V13.3582H81.2169V13.3808H81.2396V13.4033H81.2622V13.4258H81.2849V13.4483H81.3075V13.4708H81.3301V13.4934H81.3528V13.5159H81.3754V13.5384H81.3981V13.5609H81.4207V13.5835H81.4433V13.606H81.466V13.6285H81.4886V13.651H81.5112V13.6735H81.5565V13.651H81.5792V13.6285H81.6018V13.606H81.6244V13.5835H81.6471V13.5609H81.6697V13.5384H81.6924V13.5159H81.715V13.4934H81.7376V13.4708H81.7603V13.4483H81.7829V13.4258H81.8056V13.4033H81.8282V13.3808H81.8508V13.3582H81.8735V13.3357H81.8961V13.3132H81.9187V13.2907H81.9414V13.2681H81.964V13.2456H81.9867V13.2231H82.0093V13.2006H82.0319V13.1781H82.0546V13.1555H82.0772V13.133H82.0999V13.1105H82.1225V13.088H82.1451V13.0654H82.1678V13.0429H82.1904V13.0204H82.2131V12.9979H82.2357V12.9753H82.2583V12.9528H82.281V12.9303H82.3036V12.9078H82.3262V12.8853H82.3489V12.8627H82.3715V12.8402H82.3942V12.8177H82.4168V12.7952H82.4394V12.7726H82.4621V12.7501H82.4847V12.7276H82.5074V12.7051H82.53V12.6826H82.5526V12.66H82.5753V12.6375H82.5979V12.615H82.6206V12.5925H82.6432V12.5699H82.6658V12.5474H82.6885V12.5249H82.7111V12.5024H82.7337V12.4798H82.7564V12.4573H82.779V12.4348H82.8017V12.4123H82.8243V12.3898H82.8469V12.3672H82.8696V12.3447H82.8922V12.3222H82.9149V12.2997H82.9375V12.2771H82.9601V12.2546H82.9828V12.2321H83.0054V12.2096H83.0281V12.1871H83.0507V12.1645H83.0733V12.142H83.096V12.1195H83.1186V12.097H83.1412V12.0744H83.1639V12.0519H83.1865V12.0294H83.2092V12.0069H83.2318V11.9844H83.2544V11.9618H83.2771V11.9393H83.2997V11.9168H83.3224V11.8943H83.345V11.8717H83.3676V11.8492H83.3903V11.8267H83.4129V11.8042H83.4356V11.7816H83.4582V11.7591H83.4808V11.7366H83.5035V11.7141H83.5261V11.6916H83.5487V11.669H83.5714V11.6465H83.594V11.624H83.6167V11.6015H83.6393V11.5789H83.6619V11.5564H83.6846V11.5339H83.7072V11.5114H83.7299V11.4889H83.7525V11.4663H83.7751V11.4438H83.7978V11.4213H83.8204V11.3988H83.8431V11.3762H83.8657V11.3537H83.8883V11.3312H83.911V11.3087H83.9336V11.2862H83.9562V11.2636H83.9789V11.2411H84.0015V11.2186H84.0242V11.1961H84.0468V11.1735H84.0694V11.151H84.0921V11.1285H84.1147V11.106H84.1374V11.0834H84.16V11.0609H84.1826V11.0384H84.2053V11.0159H84.2279V10.9934H84.2506V10.9708H84.2732V10.9483H84.2958V10.9258H84.3185V10.9033H84.3411V10.8807H84.3637V10.8582H84.3864V10.8357H84.409V10.8132H84.4317V10.7907H84.4543V10.7681H84.4769V10.7456H84.4996V10.7231H84.5222V10.7006H84.5449V10.678H84.5675V10.6555H84.5901V10.633H84.6128V10.6105H84.6354V10.588H84.6581V10.5654H84.6807V10.5429H84.7033V10.5204H84.726V10.4979H84.7486V10.4753H84.7712V10.4528H84.7939V10.4303H84.8165V10.4078H84.8392V10.3852H84.8618V10.3627H84.8844V10.3402H84.9071V10.3177H84.9297V10.2952H84.9524V10.2726H84.975V10.2501H84.9976V10.2276H85.0203V10.2051H85.0429V10.1825H85.0656V10.16H85.0882V10.1375H85.1108V10.115H85.1335V10.0925H85.1561V10.0699H85.1787V10.0474H85.2014V10.0249H85.224V10.0024H85.2467V9.97984H85.2693V9.95732H85.2919V9.9348H85.3146V9.91227H85.3372V9.88975H85.3599V9.86723H85.3825V9.8447H85.4051V9.82218H85.4278V9.79966H85.4504V9.77714H85.4731V9.75461H85.4957V9.73209H85.5183V9.70957H85.541V9.68705H85.5636V9.66452H85.5862V9.642H85.6089V9.61948H85.6315V9.59696H85.6542V9.57443H85.6768V9.55191H85.6994V9.52939H85.7221V9.50687H85.7447V9.48434H85.7674V9.46182H85.79V9.4393H85.8126V9.41678H85.8353V9.39425H85.8579V9.37173H85.8806V9.34921H85.9032V9.32668H85.9258V9.30416H85.9485V9.28164H85.9711V9.25912H85.9937V9.23659H86.0164V9.21407H86.039V9.19155H86.0617V9.16903H86.0843V9.1465H86.1069V9.12398H86.1296V9.10146H86.1522V9.07894H86.1749V9.05641H86.1975V9.03389H86.2201V9.01137H86.2428V8.98885H86.2654V8.96632H86.2881V8.9438H86.3107V8.92128H86.3333V8.89876H86.356V8.87623H86.3786V8.85371H86.4012V8.83119H86.4239V8.80866H86.4465V8.78614H86.4692V8.76362H86.4918V8.7411H86.5144V8.71857H86.5371V8.69605H86.5597V8.67353H86.5824V8.65101H86.605V8.62848H86.6276V8.60596H86.6503V8.58344H86.6729V8.56092H86.6956V8.53839H86.7182V8.51587H86.7408V8.49335H86.7635V8.47083H86.7861V8.4483H86.8087V8.42578H86.8314V8.40326H86.854V8.38074H86.8767V8.35821H86.8993V8.33569H86.9219V8.31317H86.9446V8.29064H86.9672V8.26812H86.9899V8.2456H87.0125V8.22308H87.0351V8.20055H87.0578V8.17803H87.0804V8.15551H87.1031V8.13299H87.1257V8.11046H87.1483V8.08794H87.171V8.06542H87.1936V8.0429H87.2162V8.02037H87.2389V7.99785H87.2615V7.97533H87.2842V7.95281H87.3068V7.93028H87.3294V7.90776H87.3521V7.88524H87.3747V7.86271H87.3974V7.84019H87.42V7.81767H87.4426V7.79515H87.4653V7.77262H87.4879V7.7501H87.5106V7.72758H87.5332V7.70506H87.5558V7.68253H87.5785V7.66001H87.6011V7.63749H87.6237V7.61497H87.6464V7.59244H87.669V7.56992H87.6917V7.5474H87.7143V7.52488H87.7369V7.50235H87.7596V7.47983H87.7822V7.45731H87.8049V7.43479H87.8275V7.41226H87.8501V7.38974H87.8728V7.36722H87.8954V7.34469H87.9181V7.32217H87.9407V7.29965H87.9633V7.27713H87.986V7.2546H88.0086V7.23208H88.0312V7.20956H88.0539V7.18704H88.0765V7.16451H88.0992V7.14199H88.1218V7.11947H88.1444V7.09695H88.1671V7.07442H88.1897V7.0519H88.2124V7.02938H88.235V7.00686H88.2576V6.98433H88.2803V6.96181H88.3029V6.93929H88.3256V6.91677H88.3482V6.89424H88.3708V6.87172H88.3935V6.8492H88.4161V6.82667H88.4387V6.80415H88.4614V6.78163H88.484V6.75911H88.5067V6.73658H88.5293V6.71406H88.5519V6.69154H88.5746V6.66902H88.5972V6.64649H88.6199V6.62397H88.6425V6.60145H88.6651V6.57893H88.6878V6.5564H88.7104V6.53388H88.7331V6.51136H88.7557V6.48884H88.7783V6.46631H88.801V6.44379H88.8236V6.42127H88.8462V6.39875H88.8689V6.37622H88.8915V6.3537H88.9142V6.33118H88.9368V6.30865H88.9594V6.28613H88.9821V6.26361H89.0047V6.24109H89.0274V6.21856H89.05V6.19604H89.0726V6.17352H89.0953V6.151H89.1179V6.12847H89.1406V6.10595H89.1632V6.08343H89.1858V6.06091H89.2085V6.03838H89.2311V6.01586H89.2537V5.99334H89.2764V5.97082H89.299V5.94829H89.3217V5.92577H89.3443V5.90325H89.3669V5.88073H89.3896V5.8582H89.4122V5.83568H89.4349V5.81316H89.4575V5.79063H89.4801V5.76811H89.5028V5.74559H89.5254V5.72307H89.5481V5.70054H89.5707V5.67802H89.5933V5.6555H89.616V5.63298H89.6386V5.61045H89.6612V5.58793H89.6839V5.56541H89.7065V5.54289H89.7292V5.52036H89.7518V5.49784H89.7744V5.47532H89.7971V5.4528H89.8197V5.43027H89.8424V5.40775H89.865V5.38523H89.8876V5.36271H89.9103V5.34018H89.9329V5.31766H89.9556V5.29514H89.9782V5.27261H90.0008V5.25009H90.0235V5.22757H90.0461V5.20505H90.0687V5.18252H90.0914V5.16H90.114V5.13748H90.1367V5.11496H90.1593V5.09243H90.1819V5.06991H90.2046V5.04739H90.2272V5.02487H90.2499V5.00234H90.2725V4.97982H90.2951V4.9573H90.3178V4.93478H90.3404V4.91225H90.3631V4.88973H90.3857V4.86721H90.4083V4.84469H90.431V4.82216H90.4536V4.79964H90.4762V4.77712H90.4989V4.75459H90.5215V4.73207H90.5442V4.70955H90.5668V4.68703H90.5894V4.6645H90.6121V4.64198H90.6347V4.61946H90.6574V4.59694H90.68V4.57441H90.7026V4.55189H90.7253V4.52937H90.7479V4.50685H90.7706V4.48432H90.7932V4.4618H90.8158V4.43928H90.8385V4.41676H90.8611V4.39423H90.8837V4.37171H90.9064V4.34919H90.929V4.32667H90.9517V4.30414H90.9743V4.28162H90.9969V4.2591H91.0196V4.23657H91.0422V4.21405H91.0649V4.19153H91.0875V4.16901H91.1101V4.14648H91.1328V4.12396H91.1554V4.10144H91.1781V4.07892H91.2007V4.05639H91.2233V4.03387H91.246V4.01135H91.2686V3.98883H91.2912V3.9663H91.3139V3.94378H91.3365V3.92126H91.3592V3.89874H91.3818V3.87621H91.4044V3.85369H91.4271V3.83117H91.4497V3.80865H91.4724V3.78612H91.495V3.7636H91.5176V3.74108H91.5403V3.71855H91.5629V3.69603H91.5856V3.67351H91.6082V3.65099H91.6308V3.62846H91.6535V3.60594H91.6761V3.58342H91.6987V3.5609H91.7214V3.53837H91.744V3.51585H91.7667V3.49333H91.7893V3.47081H91.8119V3.44828H91.8346V3.42576H91.8572V3.40324H91.8799V3.38072H91.9025V3.35819H91.9251V3.33567H91.9478V3.31315H91.9704V3.29063H91.9931V3.2681H92.0157V3.24558H92.0383V3.22306H92.061V3.20053H92.0836V3.17801H92.1062V3.15549H92.1289V3.13297H92.1515V3.11044H92.1742V3.08792H92.1968V3.0654H92.2194V3.04288H92.2421V3.02035H92.2647V2.99783H92.2874V2.97531H92.31V2.95279H92.3326V2.93026H92.3553V2.90774H92.3779V2.88522H92.4006V2.8627H92.4232V2.84017H92.4458V2.81765H92.4685V2.79513H92.4911V2.77261H92.5137V2.75008H92.5364V2.72756H92.559V2.70504H92.5817V2.68251H92.6043V2.65999H92.6269V2.63747H92.6496V2.61495H92.6722V2.59242H92.6949V2.5699H92.7175V2.54738H92.7401V2.52486H92.7628V2.50233H92.7854V2.47981H92.8081V2.45729H92.8307V2.43477H92.8533V2.41224H92.876V2.38972H92.8986V2.3672H92.9212V2.34468H92.9439V2.32215H92.9665V2.29963H92.9892V2.27711H93.0118V2.25459H93.0344V2.23206H93.0571V2.20954H93.0797V2.18702H93.1024V2.16449H93.125V2.14197H93.1476V2.11945H93.1703V2.09693H93.1929V2.0744H93.2156V2.05188H93.2382V2.02936H93.2608V2.00684H93.2835V1.98431H93.3061V1.96179H93.3287V1.93927H93.3514V1.91675H93.374V1.89422H93.3967V1.8717H93.4193V1.84918H93.4419V1.82666H93.4646V1.80413H93.4872V1.78161H93.5099V1.75909H93.5325V1.73657H93.5551V1.71404H93.5778V1.69152H93.6004V1.669H93.6231V1.64647H93.6457V1.62395H93.6683V1.60143H93.691V1.57891H93.7136V1.55638H93.7362V1.53386H93.7589V1.51134H93.7815V1.48882H93.8042V1.46629H93.8268V1.44377H93.8494V1.42125H93.8721V1.39873H93.8947V1.3762H93.9174V1.35368H93.94V1.33116H93.9626V1.30864H93.9853V1.28611H94.0079V1.26359H94.0306V1.24107H94.0532V1.21855H94.0758V1.19602H94.0985V1.1735H94.1211V1.15098H94.1437V1.12845H94.1664V1.10593H94.189V1.08341H94.2117V1.06089H94.2343V1.03836H94.2569V1.01584H94.2796V0.993319H94.3022V0.970796H94.3249V0.948274H94.3475V0.925751H94.3701V0.903229H94.3928V0.880706H94.4154V0.858183H94.4381V0.835661H94.4607V0.813138H94.4833V0.790616H94.506V0.768093H94.5286V0.74557H94.5512V0.723048H94.5739V0.700525H94.5965V0.678002H94.6192V0.65548H94.6418V0.632957H94.6644V0.610435H94.6871V0.587912H94.7097V0.565389H94.7324V0.542867H94.755V0.520344H94.7776V0.497822H94.8003V0.475299H94.8229V0.452776H94.8456V0.430254H94.8682V0.407731H94.8908V0.385209H94.9135V0.362686H94.9361V0.340163H94.9587V0.317641H94.9814V0.295118H95.004V0.272596H95.0267V0.250073H95.0493V0.22755H95.0719V0.205028H95.0946V0.182505H95.1172V0.159982H95.1399V0.13746H95.1625V0.114937H95.1851V0.0924146H95.2078V0.069892H95.2304V0.0473694H95.2531V0.0248468H95.2757V0.0023242H95.2983V-0.0201984H95.321V-0.042721H95.3436V-0.0652436H163.034V107.728H95.321V94.0342H95.2983V94.0567H95.2757V94.0793H95.2531V94.1018H95.2304V94.1243H95.2078V94.1468H95.1851V94.1694H95.1625V94.1919H95.1399V94.2144H95.1172V94.2369H95.0946V94.2594H95.0719V94.282H95.0493V94.3045H95.0267V94.327H95.004V94.3495H94.9814V94.3721H94.9587V94.3946H94.9361V94.4171H94.9135V94.4396H94.8908V94.4621H94.8682V94.4847H94.8456V94.5072H94.8229V94.5297H94.8003V94.5522H94.7776V94.5748H94.755V94.5973H94.7324V94.6198H94.7097V94.6423H94.6871V94.6649H94.6644V94.6874H94.6418V94.7099H94.6192V94.7324H94.5965V94.7549H94.5739V94.7775H94.5512V94.8H94.5286V94.8225H94.506V94.845H94.4833V94.8676H94.4607V94.8901H94.4381V94.9126H94.4154V94.9351H94.3928V94.9576H94.3701V94.9802H94.3475V95.0027H94.3249V95.0252H94.3022V95.0477H94.2796V95.0703H94.2569V95.0928H94.2343V95.1153H94.2117V95.1378H94.189V95.1604H94.1664V95.1829H94.1437V95.2054H94.1211V95.2279H94.0985V95.2504H94.0758V95.273H94.0532V95.2955H94.0306V95.318H94.0079V95.3405H93.9853V95.3631H93.9626V95.3856H93.94V95.4081H93.9174V95.4306H93.8947V95.4531H93.8721V95.4757H93.8494V95.4982H93.8268V95.5207H93.8042V95.5432H93.7815V95.5658H93.7589V95.5883H93.7362V95.6108H93.7136V95.6333H93.691V95.6558H93.6683V95.6784H93.6457V95.7009H93.6231V95.7234H93.6004V95.7459H93.5778V95.7685H93.5551V95.791H93.5325V95.8135H93.5099V95.836H93.4872V95.8586H93.4646V95.8811H93.4419V95.9036H93.4193V95.9261H93.3967V95.9486H93.374V95.9712H93.3514V95.9937H93.3287V96.0162H93.3061V96.0387H93.2835V96.0613H93.2608V96.0838H93.2382V96.1063H93.2156V96.1288H93.1929V96.1513H93.1703V96.1739H93.1476V96.1964H93.125V96.2189H93.1024V96.2414H93.0797V96.264H93.0571V96.2865H93.0344V96.309H93.0118V96.3315H92.9892V96.354H92.9665V96.3766H92.9439V96.3991H92.9212V96.4216H92.8986V96.4441H92.876V96.4667H92.8533V96.4892H92.8307V96.5117H92.8081V96.5342H92.7854V96.5568H92.7628V96.5793H92.7401V96.6018H92.7175V96.6243H92.6949V96.6468H92.6722V96.6694H92.6496V96.6919H92.6269V96.7144H92.6043V96.7369H92.5817V96.7595H92.559V96.782H92.5364V96.8045H92.5137V96.827H92.4911V96.8495H92.4685V96.8721H92.4458V96.8946H92.4232V96.9171H92.4006V96.9396H92.3779V96.9622H92.3553V96.9847H92.3326V97.0072H92.31V97.0297H92.2874V97.0522H92.2647V97.0748H92.2421V97.0973H92.2194V97.1198H92.1968V97.1423H92.1742V97.1649H92.1515V97.1874H92.1289V97.2099H92.1062V97.2324H92.0836V97.255H92.061V97.2775H92.0383V97.3H92.0157V97.3225H91.9931V97.345H91.9704V97.3676H91.9478V97.3901H91.9251V97.4126H91.9025V97.4351H91.8799V97.4577H91.8572V97.4802H91.8346V97.5027H91.8119V97.5252H91.7893V97.5477H91.7667V97.5703H91.744V97.5928H91.7214V97.6153H91.6987V97.6378H91.6761V97.6604H91.6535V97.6829H91.6308V97.7054H91.6082V97.7279H91.5856V97.7505H91.5629V97.773H91.5403V97.7955H91.5176V97.818H91.495V97.8405H91.4724V97.8631H91.4497V97.8856H91.4271V97.9081H91.4044V97.9306H91.3818V97.9532H91.3592V97.9757H91.3365V97.9982H91.3139V98.0207H91.2912V98.0432H91.2686V98.0658H91.246V98.0883H91.2233V98.1108H91.2007V98.1333H91.1781V98.1559H91.1554V98.1784H91.1328V98.2009H91.1101V98.2234H91.0875V98.2459H91.0649V98.2685H91.0422V98.291H91.0196V98.3135H90.9969V98.336H90.9743V98.3586H90.9517V98.3811H90.929V98.4036H90.9064V98.4261H90.8837V98.4487H90.8611V98.4712H90.8385V98.4937H90.8158V98.5162H90.7932V98.5387H90.7706V98.5613H90.7479V98.5838H90.7253V98.6063H90.7026V98.6288H90.68V98.6514H90.6574V98.6739H90.6347V98.6964H90.6121V98.7189H90.5894V98.7414H90.5668V98.764H90.5442V98.7865H90.5215V98.809H90.4989V98.8315H90.4762V98.8541H90.4536V98.8766H90.431V98.8991H90.4083V98.9216H90.3857V98.9441H90.3631V98.9667H90.3404V98.9892H90.3178V99.0117H90.2951V99.0342H90.2725V99.0568H90.2499V99.0793H90.2272V99.1018H90.2046V99.1243H90.1819V99.1469H90.1593V99.1694H90.1367V99.1919H90.114V99.2144H90.0914V99.2369H90.0687V99.2595H90.0461V99.282H90.0235V99.3045H90.0008V99.327H89.9782V99.3496H89.9556V99.3721H89.9329V99.3946H89.9103V99.4171H89.8876V99.4396H89.865V99.4622H89.8424V99.4847H89.8197V99.5072H89.7971V99.5297H89.7744V99.5523H89.7518V99.5748H89.7292V99.5973H89.7065V99.6198H89.6839V99.6423H89.6612V99.6649H89.6386V99.6874H89.616V99.7099H89.5933V99.7324H89.5707V99.755H89.5481V99.7775H89.5254V99.8H89.5028V99.8225H89.4801V99.8451H89.4575V99.8676H89.4349V99.8901H89.4122V99.9126H89.3896V99.9351H89.3669V99.9577H89.3443V99.9802H89.3217V100.003H89.299V100.025H89.2764V100.048H89.2537V100.07H89.2311V100.093H89.2085V100.115H89.1858V100.138H89.1632V100.16H89.1406V100.183H89.1179V100.205H89.0953V100.228H89.0726V100.25H89.05V100.273H89.0274V100.296H89.0047V100.318H88.9821V100.341H88.9594V100.363H88.9368V100.386H88.9142V100.408H88.8915V100.431H88.8689V100.453H88.8462V100.476H88.8236V100.498H88.801V100.521H88.7783V100.543H88.7557V100.566H88.7331V100.588H88.7104V100.611H88.6878V100.633H88.6651V100.656H88.6425V100.678H88.6199V100.701H88.5972V100.723H88.5746V100.746H88.5519V100.768H88.5293V100.791H88.5067V100.814H88.484V100.836H88.4614V100.859H88.4387V100.881H88.4161V100.904H88.3935V100.926H88.3708V100.949H88.3482V100.971H88.3256V100.994H88.3029V101.016H88.2803V101.039H88.2576V101.061H88.235V101.084H88.2124V101.106H88.1897V101.129H88.1671V101.151H88.1444V101.174H88.1218V101.196H88.0992V101.219H88.0765V101.241H88.0539V101.264H88.0312V101.286H88.0086V101.309H87.986V101.332H87.9633V101.354H87.9407V101.377H87.9181V101.399H87.8954V101.422H87.8728V101.444H87.8501V101.467H87.8275V101.489H87.8049V101.512H87.7822V101.534H87.7596V101.557H87.7369V101.579H87.7143V101.602H87.6917V101.624H87.669V101.647H87.6464V101.669H87.6237V101.692H87.6011V101.714H87.5785V101.737H87.5558V101.759H87.5332V101.782H87.5106V101.805H87.4879V101.827H87.4653V101.85H87.4426V101.872H87.42V101.895H87.3974V101.917H87.3747V101.94H87.3521V101.962H87.3294V101.985H87.3068V102.007H87.2842V102.03H87.2615V102.052H87.2389V102.075H87.2162V102.097H87.1936V102.12H87.171V102.142H87.1483V102.165H87.1257V102.187H87.1031V102.21H87.0804V102.232H87.0578V102.255H87.0351V102.277H87.0125V102.3H86.9899V102.323H86.9672V102.345H86.9446V102.368H86.9219V102.39H86.8993V102.413H86.8767V102.435H86.854V102.458H86.8314V102.48H86.8087V102.503H86.7861V102.525H86.7635V102.548H86.7408V102.57H86.7182V102.593H86.6956V102.615H86.6729V102.638H86.6503V102.66H86.6276V102.683H86.605V102.705H86.5824V102.728H86.5597V102.75H86.5371V102.773H86.5144V102.796H86.4918V102.818H86.4692V102.841H86.4465V102.863H86.4239V102.886H86.4012V102.908H86.3786V102.931H86.356V102.953H86.3333V102.976H86.3107V102.998H86.2881V103.021H86.2654V103.043H86.2428V103.066H86.2201V103.088H86.1975V103.111H86.1749V103.133H86.1522V103.156H86.1296V103.178H86.1069V103.201H86.0843V103.223H86.0617V103.246H86.039V103.268H86.0164V103.291H85.9937V103.314H85.9711V103.336H85.9485V103.359H85.9258V103.381H85.9032V103.404H85.8806V103.426H85.8579V103.449H85.8353V103.471H85.8126V103.494H85.79V103.516H85.7674V103.539H85.7447V103.561H85.7221V103.584H85.6994V103.606H85.6768V103.629H85.6542V103.651H85.6315V103.674H85.6089V103.696H85.5862V103.719H85.5636V103.741H85.541V103.764H85.5183V103.787H85.4957V103.809H85.4731V103.832H85.4504V103.854H85.4278V103.877H85.4051V103.899H85.3825V103.922H85.3599V103.944H85.3372V103.967H85.3146V103.989H85.2919V104.012H85.2693V104.034H85.2467V104.057H85.224V104.079H85.2014V104.102H85.1787V104.124H85.1561V104.147H85.1335V104.169H85.1108V104.192H85.0882V104.214H85.0656V104.237H85.0429V104.259H85.0203V104.282H84.9976V104.305H84.975V104.327H84.9524V104.35H84.9297V104.372H84.9071V104.395H84.8844V104.417H84.8618V104.44H84.8392V104.462H84.8165V104.485H84.7939V104.507H84.7712V104.53H84.7486V104.552H84.726V104.575H84.7033V104.597H84.6807V104.62H84.6581V104.642H84.6354V104.665H84.6128V104.687H84.5901V104.71H84.5675V104.732H84.5449V104.755H84.5222V104.778H84.4996V104.8H84.4769V104.823H84.4543V104.845H84.4317V104.868H84.409V104.89H84.3864V104.913H84.3637V104.935H84.3411V104.958H84.3185V104.98H84.2958V105.003H84.2732V105.025H84.2506V105.048H84.2279V105.07H84.2053V105.093H84.1826V105.115H84.16V105.138H84.1374V105.16H84.1147V105.183H84.0921V105.205H84.0694V105.228H84.0468V105.25H84.0242V105.273H84.0015V105.296H83.9789V105.318H83.9562V105.341H83.9336V105.363H83.911V105.386H83.8883V105.408H83.8657V105.431H83.8431V105.453H83.8204V105.476H83.7978V105.498H83.7751V105.521H83.7525V105.543H83.7299V105.566H83.7072V105.588H83.6846V105.611H83.6619V105.633H83.6393V105.656H83.6167V105.678H83.594V105.701H83.5714V105.723H83.5487V105.746H83.5261V105.768H83.5035V105.791H83.4808V105.814H83.4582V105.836H83.4356V105.859H83.4129V105.881H83.3903V105.904H83.3676V105.926H83.345V105.949H83.3224V105.971H83.2997V105.994H83.2771V106.016H83.2544V106.039H83.2318V106.061H83.2092V106.084H83.1865V106.106H83.1639V106.129H83.1412V106.151H83.1186V106.174H83.096V106.196H83.0733V106.219H83.0507V106.241H83.0281V106.264H83.0054V106.287H82.9828V106.309H82.9601V106.332H82.9375V106.354H82.9149V106.377H82.8922V106.399H82.8696V106.422H82.8469V106.444H82.8243V106.467H82.8017V106.489H82.779V106.512H82.7564V106.534H82.7337V106.557H82.7111V106.579H82.6885V106.602H82.6658V106.624H82.6432V106.647H82.6206V106.669H82.5979V106.692H82.5753V106.714H82.5526V106.737H82.53V106.759H82.5074V106.782H82.4847V106.805H82.4621V106.827H82.4394V106.85H82.4168V106.872H82.3942V106.895H82.3715V106.917H82.3489V106.94H82.3262V106.962H82.3036V106.985H82.281V107.007H82.2583V107.03H82.2357V107.052H82.2131V107.075H82.1904V107.097H82.1678V107.12H82.1451V107.142H82.1225V107.165H82.0999V107.187H82.0772V107.21H82.0546V107.232H82.0319V107.255H82.0093V107.278H81.9867V107.3H81.964V107.323H81.9414V107.345H81.9187V107.368H81.8961V107.39H81.8735V107.413H81.8508V107.435H81.8282V107.458H81.8056V107.48H81.7829V107.503H81.7603V107.525H81.7376V107.548H81.715V107.57H81.6924V107.593H81.6697V107.615H81.6471V107.638H81.6244V107.66H81.6018V107.683H81.5792V107.705H81.5565V107.728H81.5112V107.705H81.4886V107.683H81.466V107.66H81.4433V107.638H81.4207V107.615H81.3981V107.593H81.3754V107.57H81.3528V107.548H81.3301V107.525H81.3075V107.503H81.2849V107.48H81.2622V107.458H81.2396V107.435H81.2169V107.413H81.1943V107.39H81.1717V107.368H81.149V107.345H81.1264V107.323H81.1037V107.3H81.0811V107.278H81.0585V107.255H81.0358V107.232H81.0132V107.21H80.9906V107.187H80.9679V107.165H80.9453V107.142H80.9226V107.12H80.9V107.097H80.8774V107.075H80.8547V107.052H80.8321V107.03H80.8094V107.007H80.7868V106.985H80.7642V106.962H80.7415V106.94H80.7189V106.917H80.6962V106.895H80.6736V106.872H80.651V106.85H80.6283V106.827H80.6057V106.805H80.5831V106.782H80.5604V106.759H80.5378V106.737H80.5151V106.714H80.4925V106.692H80.4699V106.669H80.4472V106.647H80.4246V106.624H80.4019V106.602H80.3793V106.579H80.3567V106.557H80.334V106.534H80.3114V106.512H80.2887V106.489H80.2661V106.467H80.2435V106.444H80.2208V106.422H80.1982V106.399H80.1756V106.377H80.1529V106.354H80.1303V106.332H80.1076V106.309H80.085V106.287H80.0624V106.264H80.0397V106.241H80.0171V106.219H79.9944V106.196H79.9718V106.174H79.9492V106.151H79.9265V106.129H79.9039V106.106H79.8812V106.084H79.8586V106.061H79.836V106.039H79.8133V106.016H79.7907V105.994H79.7681V105.971H79.7454V105.949H79.7228V105.926H79.7001V105.904H79.6775V105.881H79.6549V105.859H79.6322V105.836H79.6096V105.814H79.5869V105.791H79.5643V105.768H79.5417V105.746H79.519V105.723H79.4964V105.701H79.4737V105.678H79.4511V105.656H79.4285V105.633H79.4058V105.611H79.3832V105.588H79.3606V105.566H79.3379V105.543H79.3153V105.521H79.2926V105.498H79.27V105.476H79.2474V105.453H79.2247V105.431H79.2021V105.408H79.1794V105.386H79.1568V105.363H79.1342V105.341H79.1115V105.318H79.0889V105.296H79.0662V105.273H79.0436V105.25H79.021V105.228H78.9983V105.205H78.9757V105.183H78.9531V105.16H78.9304V105.138H78.9078V105.115H78.8851V105.093H78.8625V105.07H78.8399V105.048H78.8172V105.025H78.7946V105.003H78.7719V104.98H78.7493V104.958H78.7267V104.935H78.704V104.913H78.6814V104.89H78.6587V104.868H78.6361V104.845H78.6135V104.823H78.5908V104.8H78.5682V104.778H78.5456V104.755H78.5229V104.732H78.5003V104.71H78.4776V104.687H78.455V104.665H78.4324V104.642H78.4097V104.62H78.3871V104.597H78.3644V104.575H78.3418V104.552H78.3192V104.53H78.2965V104.507H78.2739V104.485H78.2512V104.462H78.2286V104.44H78.206V104.417H78.1833V104.395H78.1607V104.372H78.1381V104.35H78.1154V104.327H78.0928V104.305H78.0701V104.282H78.0475V104.259H78.0249V104.237H78.0022V104.214H77.9796V104.192H77.9569V104.169H77.9343V104.147H77.9117V104.124H77.889V104.102H77.8664V104.079H77.8437V104.057H77.8211V104.034H77.7985V104.012H77.7758V103.989H77.7532V103.967H77.7306V103.944H77.7079V103.922H77.6853V103.899H77.6626V103.877H77.64V103.854H77.6174V103.832H77.5947V103.809H77.5721V103.787H77.5494V103.764H77.5268V103.741H77.5042V103.719H77.4815V103.696H77.4589V103.674H77.4362V103.651H77.4136V103.629H77.391V103.606H77.3683V103.584H77.3457V103.561H77.3231V103.539H77.3004V103.516H77.2778V103.494H77.2551V103.471H77.2325V103.449H77.2099V103.426H77.1872V103.404H77.1646V103.381H77.1419V103.359H77.1193V103.336H77.0967V103.314H77.074V103.291H77.0514V103.268H77.0287V103.246H77.0061V103.223H76.9835V103.201H76.9608V103.178H76.9382V103.156H76.9156V103.133H76.8929V103.111H76.8703V103.088H76.8476V103.066H76.825V103.043H76.8024V103.021H76.7797V102.998H76.7571V102.976H76.7344V102.953H76.7118V102.931H76.6892V102.908H76.6665V102.886H76.6439V102.863H76.6212V102.841H76.5986V102.818H76.576V102.796H76.5533V102.773H76.5307V102.75H76.5081V102.728H76.4854V102.705H76.4628V102.683H76.4401V102.66H76.4175V102.638H76.3949V102.615H76.3722V102.593H76.3496V102.57H76.3269V102.548H76.3043V102.525H76.2817V102.503H76.259V102.48H76.2364V102.458H76.2137V102.435H76.1911V102.413H76.1685V102.39H76.1458V102.368H76.1232V102.345H76.1006V102.323H76.0779V102.3H76.0553V102.277H76.0326V102.255H76.01V102.232H75.9874V102.21H75.9647V102.187H75.9421V102.165H75.9194V102.142H75.8968V102.12H75.8742V102.097H75.8515V102.075H75.8289V102.052H75.8062V102.03H75.7836V102.007H75.761V101.985H75.7383V101.962H75.7157V101.94H75.6931V101.917H75.6704V101.895H75.6478V101.872H75.6251V101.85H75.6025V101.827H75.5799V101.805H75.5572V101.782H75.5346V101.759H75.5119V101.737H75.4893V101.714H75.4667V101.692H75.444V101.669H75.4214V101.647H75.3987V101.624H75.3761V101.602H75.3535V101.579H75.3308V101.557H75.3082V101.534H75.2856V101.512H75.2629V101.489H75.2403V101.467H75.2176V101.444H75.195V101.422H75.1724V101.399H75.1497V101.377H75.1271V101.354H75.1044V101.332H75.0818V101.309H75.0592V101.286H75.0365V101.264H75.0139V101.241H74.9912V101.219H74.9686V101.196H74.946V101.174H74.9233V101.151H74.9007V101.129H74.8781V101.106H74.8554V101.084H74.8328V101.061H74.8101V101.039H74.7875V101.016H74.7649V100.994H74.7422V100.971H74.7196V100.949H74.6969V100.926H74.6743V100.904H74.6517V100.881H74.629V100.859H74.6064V100.836H74.5837V100.814H74.5611V100.791H74.5385V100.768H74.5158V100.746H74.4932V100.723H74.4706V100.701H74.4479V100.678H74.4253V100.656H74.4026V100.633H74.38V100.611H74.3574V100.588H74.3347V100.566H74.3121V100.543H74.2894V100.521H74.2668V100.498H74.2442V100.476H74.2215V100.453H74.1989V100.431H74.1762V100.408H74.1536V100.386H74.131V100.363H74.1083V100.341H74.0857V100.318H74.0631V100.296H74.0404V100.273H74.0178V100.25H73.9951V100.228H73.9725V100.205H73.9499V100.183H73.9272V100.16H73.9046V100.138H73.8819V100.115H73.8593V100.093H73.8367V100.07H73.814V100.048H73.7914V100.025H73.7687V100.003H73.7461V99.9802H73.7235V99.9577H73.7008V99.9351H73.6782V99.9126H73.6556V99.8901H73.6329V99.8676H73.6103V99.8451H73.5876V99.8225H73.565V99.8H73.5424V99.7775H73.5197V99.755H73.4971V99.7324H73.4744V99.7099H73.4518V99.6874H73.4292V99.6649H73.4065V99.6423H73.3839V99.6198H73.3612V99.5973H73.3386V99.5748H73.316V99.5523H73.2933V99.5297H73.2707V99.5072H73.2481V99.4847H73.2254V99.4622H73.2028V99.4396H73.1801V99.4171H73.1575V99.3946H73.1349V99.3721H73.1122V99.3496H73.0896V99.327H73.0669V99.3045H73.0443V99.282H73.0217V99.2595H72.999V99.2369H72.9764V99.2144H72.9537V99.1919H72.9311V99.1694H72.9085V99.1469H72.8858V99.1243H72.8632V99.1018H72.8406V99.0793H72.8179V99.0568H72.7953V99.0342H72.7726V99.0117H72.75V98.9892H72.7274V98.9667H72.7047V98.9441H72.6821V98.9216H72.6594V98.8991H72.6368V98.8766H72.6142V98.8541H72.5915V98.8315H72.5689V98.809H72.5462V98.7865H72.5236V98.764H72.501V98.7414H72.4783V98.7189H72.4557V98.6964H72.4331V98.6739H72.4104V98.6514H72.3878V98.6288H72.3651V98.6063H72.3425V98.5838H72.3199V98.5613H72.2972V98.5387H72.2746V98.5162H72.2519V98.4937H72.2293V98.4712H72.2067V98.4487H72.184V98.4261H72.1614V98.4036H72.1387V98.3811H72.1161V98.3586H72.0935V98.336H72.0708V98.3135H72.0482V98.291H72.0256V98.2685H72.0029V98.2459H71.9803V98.2234H71.9576V98.2009H71.935V98.1784H71.9124V98.1559H71.8897V98.1333H71.8671V98.1108H71.8444V98.0883H71.8218V98.0658H71.7992V98.0432H71.7765V98.0207H71.7539V97.9982H71.7312V97.9757H71.7086V97.9532H71.686V97.9306H71.6633V97.9081H71.6407V97.8856H71.6181V97.8631H71.5954V97.8405H71.5728V97.818H71.5501V97.7955H71.5275V97.773H71.5049V97.7505H71.4822V97.7279H71.4596V97.7054H71.4369V97.6829H71.4143V97.6604H71.3917V97.6378H71.369V97.6153H71.3464V97.5928H71.3237V97.5703H71.3011V97.5477H71.2785V97.5252H71.2558V97.5027H71.2332V97.4802H71.2106V97.4577H71.1879V97.4351H71.1653V97.4126H71.1426V97.3901H71.12V97.3676H71.0974V97.345H71.0747V97.3225H71.0521V97.3H71.0294V97.2775H71.0068V97.255H70.9842V97.2324H70.9615V97.2099H70.9389V97.1874H70.9162V97.1649H70.8936V97.1423H70.871V97.1198H70.8483V97.0973H70.8257V97.0748H70.8031V97.0522H70.7804V97.0297H70.7578V97.0072H70.7351V96.9847H70.7125V96.9622H70.6899V96.9396H70.6672V96.9171H70.6446V96.8946H70.6219V96.8721H70.5993V96.8495H70.5767V96.827H70.554V96.8045H70.5314V96.782H70.5087V96.7595H70.4861V96.7369H70.4635V96.7144H70.4408V96.6919H70.4182V96.6694H70.3956V96.6468H70.3729V96.6243H70.3503V96.6018H70.3276V96.5793H70.305V96.5568H70.2824V96.5342H70.2597V96.5117H70.2371V96.4892H70.2144V96.4667H70.1918V96.4441H70.1692V96.4216H70.1465V96.3991H70.1239V96.3766H70.1012V96.354H70.0786V96.3315H70.056V96.309H70.0333V96.2865H70.0107V96.264H69.9881V96.2414H69.9654V96.2189H69.9428V96.1964H69.9201V96.1739H69.8975V96.1513H69.8749V96.1288H69.8522V96.1063H69.8296V96.0838H69.8069V96.0613H69.7843V96.0387H69.7617V96.0162H69.739V95.9937H69.7164V95.9712H69.6937V95.9486H69.6711V95.9261H69.6485V95.9036H69.6258V95.8811H69.6032V95.8586H69.5806V95.836H69.5579V95.8135H69.5353V95.791H69.5126V95.7685H69.49V95.7459H69.4674V95.7234H69.4447V95.7009H69.4221V95.6784H69.3994V95.6558H69.3768V95.6333H69.3542V95.6108H69.3315V95.5883H69.3089V95.5658H69.2862V95.5432H69.2636V95.5207H69.241V95.4982H69.2183V95.4757H69.1957V95.4531H69.1731V95.4306H69.1504V95.4081H69.1278V95.3856H69.1051V95.3631H69.0825V95.3405H69.0599V95.318H69.0372V95.2955H69.0146V95.273H68.9919V95.2504H68.9693V95.2279H68.9467V95.2054H68.924V95.1829H68.9014V95.1604H68.8787V95.1378H68.8561V95.1153H68.8335V95.0928H68.8108V95.0703H68.7882V95.0477H68.7656V95.0252H68.7429V95.0027H68.7203V94.9802H68.6976V94.9576H68.675V94.9351H68.6524V94.9126H68.6297V94.8901H68.6071V94.8676H68.5844V94.845H68.5618V94.8225H68.5392V94.8H68.5165V94.7775H68.4939V94.7549H68.4712V94.7324H68.4486V94.7099H68.426V94.6874H68.4033V94.6649H68.3807V94.6423H68.3581V94.6198H68.3354V94.5973H68.3128V94.5748H68.2901V94.5522H68.2675V94.5297H68.2449V94.5072H68.2222V94.4847H68.1996V94.4621H68.1769V94.4396H68.1543V94.4171H68.1317V94.3946H68.109V94.3721H68.0864V94.3495H68.0637V94.327H68.0411V94.3045H68.0185V94.282H67.9958V94.2594H67.9732V94.2369H67.9506V94.2144H67.9279V94.1919H67.9053V94.1694H67.8826V94.1468H67.86V94.1243H67.8374V94.1018H67.8147V94.0793H67.7921V94.0567H67.7694V94.0342H67.7468V94.0117H67.7242V107.728" fill="url(#paint0_linear_22_13)"/>
</g>
</g>
<path d="M17.3926 126.8C17.3659 128.48 16.9126 129.807 16.0326 130.78C15.1526 131.753 13.7326 132.24 11.7726 132.24C9.63925 132.24 8.05924 131.807 7.03258 130.94C6.01924 130.073 5.51258 128.667 5.51258 126.72V119C5.51258 118.853 5.47924 118.753 5.41258 118.7C5.35924 118.647 5.23258 118.6 5.03258 118.56L4.29258 118.4V118H10.7726V118.4L10.0526 118.56C9.86591 118.6 9.73924 118.647 9.67258 118.7C9.61925 118.74 9.59258 118.833 9.59258 118.98V127.08C9.59258 128.213 9.67258 129.093 9.83258 129.72C9.99258 130.347 10.2992 130.813 10.7526 131.12C11.2192 131.413 11.8992 131.56 12.7926 131.56C14.0726 131.56 15.0526 131.14 15.7326 130.3C16.4126 129.46 16.7526 128.347 16.7526 126.96V119C16.7526 118.853 16.7192 118.753 16.6526 118.7C16.5992 118.647 16.4726 118.6 16.2726 118.56L15.5326 118.4V118H18.5726V118.4L17.8526 118.56C17.6659 118.6 17.5392 118.647 17.4726 118.7C17.4192 118.74 17.3926 118.833 17.3926 118.98V126.8ZM20.7107 119C20.7107 118.853 20.6774 118.753 20.6107 118.7C20.5574 118.647 20.4307 118.6 20.2307 118.56L19.4907 118.4V118H26.1307V118.4L25.2707 118.58C25.0707 118.62 24.9374 118.667 24.8707 118.72C24.8174 118.773 24.7907 118.873 24.7907 119.02V131.4H27.3107C28.0974 131.4 28.7107 131.28 29.1507 131.04C29.5907 130.8 29.9307 130.46 30.1707 130.02C30.424 129.58 30.704 128.913 31.0107 128.02H31.5707V132H19.4907V131.6L20.2307 131.44C20.4307 131.4 20.5574 131.353 20.6107 131.3C20.6774 131.247 20.7107 131.147 20.7107 131V119ZM41.6101 131C41.6101 131.147 41.6367 131.247 41.6901 131.3C41.7567 131.353 41.8901 131.4 42.0901 131.44L42.8301 131.6V132H36.3101V131.6L37.0501 131.44C37.2501 131.4 37.3767 131.353 37.4301 131.3C37.4967 131.247 37.5301 131.147 37.5301 131V118.56H37.0701C36.2567 118.56 35.6234 118.693 35.1701 118.96C34.7301 119.227 34.3901 119.573 34.1501 120C33.9234 120.427 33.6367 121.107 33.2901 122.04H32.8501V118H46.2901V122.04H45.8501C45.5034 121.107 45.2101 120.427 44.9701 120C44.7434 119.573 44.4034 119.227 43.9501 118.96C43.5101 118.693 42.8834 118.56 42.0701 118.56H41.6101V131ZM55.7627 127.38C55.6561 126.727 55.5294 126.273 55.3827 126.02C55.2494 125.753 55.0294 125.58 54.7227 125.5C54.4161 125.407 53.9094 125.36 53.2027 125.36H52.6227V130.98C52.6227 131.127 52.6494 131.227 52.7027 131.28C52.7694 131.333 52.9027 131.38 53.1027 131.42L53.9627 131.6V132H47.3227V131.6L48.0627 131.44C48.2627 131.4 48.3894 131.353 48.4427 131.3C48.5094 131.247 48.5427 131.147 48.5427 131V119C48.5427 118.853 48.5094 118.753 48.4427 118.7C48.3894 118.647 48.2627 118.6 48.0627 118.56L47.3227 118.4V118H53.2027C54.9894 118 56.4094 118.12 57.4627 118.36C58.5161 118.587 59.2827 118.967 59.7627 119.5C60.2427 120.033 60.4827 120.76 60.4827 121.68C60.4827 122.707 60.1761 123.5 59.5627 124.06C58.9494 124.607 57.9561 124.98 56.5827 125.18C57.3694 125.233 57.9961 125.36 58.4627 125.56C58.9427 125.76 59.3161 126.08 59.5827 126.52C59.8494 126.947 60.0561 127.54 60.2027 128.3L60.4227 129.5C60.5294 130.073 60.6027 130.46 60.6427 130.66C60.6961 130.86 60.7627 131.013 60.8427 131.12C60.9361 131.227 61.0761 131.28 61.2627 131.28C61.5961 131.28 61.8761 131.033 62.1027 130.54L62.5227 130.9C62.3361 131.287 62.0494 131.6 61.6627 131.84C61.2894 132.08 60.6761 132.2 59.8227 132.2C58.9694 132.2 58.2961 132.107 57.8027 131.92C57.3094 131.733 56.9227 131.407 56.6427 130.94C56.3627 130.46 56.1494 129.773 56.0027 128.88L55.7627 127.38ZM52.6227 124.76H53.3827C54.1561 124.76 54.7494 124.653 55.1627 124.44C55.5894 124.227 55.8827 123.9 56.0427 123.46C56.2027 123.02 56.2827 122.427 56.2827 121.68C56.2827 120.933 56.2027 120.34 56.0427 119.9C55.8827 119.46 55.5894 119.133 55.1627 118.92C54.7494 118.707 54.1561 118.6 53.3827 118.6H52.6227V124.76ZM71.1207 131.6L71.9807 131.52C72.1674 131.493 72.2607 131.42 72.2607 131.3C72.2607 131.233 72.2407 131.153 72.2007 131.06L70.8807 128.14H66.2407L65.0407 131.06C65.0007 131.153 64.9807 131.233 64.9807 131.3C64.9807 131.42 65.074 131.493 65.2607 131.52L66.1207 131.6V132H63.0807V131.6L63.8207 131.52C63.9807 131.507 64.094 131.467 64.1607 131.4C64.2274 131.333 64.3007 131.213 64.3807 131.04L69.9207 117.78H70.5607L76.4207 131.04C76.5007 131.213 76.574 131.333 76.6407 131.4C76.7074 131.467 76.8207 131.507 76.9807 131.52L77.7207 131.6V132H71.1207V131.6ZM70.6207 127.54L68.4607 122.76L66.4807 127.54H70.6207ZM91.9123 122.22C91.9123 123.3 91.6523 124.147 91.1323 124.76C90.6256 125.36 89.8323 125.793 88.7523 126.06C87.6723 126.313 86.2256 126.44 84.4123 126.44H83.8923V130.98C83.8923 131.127 83.9189 131.227 83.9723 131.28C84.0389 131.333 84.1723 131.38 84.3723 131.42L85.2323 131.6V132H78.5923V131.6L79.3323 131.44C79.5323 131.4 79.6589 131.353 79.7123 131.3C79.7789 131.247 79.8123 131.147 79.8123 131V119C79.8123 118.853 79.7789 118.753 79.7123 118.7C79.6589 118.647 79.5323 118.6 79.3323 118.56L78.5923 118.4V118H84.4123C86.2256 118 87.6723 118.133 88.7523 118.4C89.8323 118.653 90.6256 119.087 91.1323 119.7C91.6523 120.3 91.9123 121.14 91.9123 122.22ZM83.8923 125.84H84.5923C85.3789 125.84 85.9923 125.72 86.4323 125.48C86.8856 125.24 87.2123 124.86 87.4123 124.34C87.6123 123.82 87.7123 123.113 87.7123 122.22C87.7123 121.327 87.6123 120.62 87.4123 120.1C87.2123 119.58 86.8856 119.2 86.4323 118.96C85.9923 118.72 85.3789 118.6 84.5923 118.6H83.8923V125.84ZM94.697 119C94.697 118.853 94.6636 118.753 94.597 118.7C94.5436 118.647 94.417 118.6 94.217 118.56L93.477 118.4V118H99.997V118.4L99.257 118.56C99.057 118.6 98.9236 118.647 98.857 118.7C98.8036 118.753 98.777 118.853 98.777 119V131C98.777 131.147 98.8036 131.247 98.857 131.3C98.9236 131.353 99.057 131.4 99.257 131.44L99.997 131.6V132H93.477V131.6L94.217 131.44C94.417 131.4 94.5436 131.353 94.597 131.3C94.6636 131.247 94.697 131.147 94.697 131V119ZM112.992 118.94C113.058 118.847 113.092 118.773 113.092 118.72C113.092 118.653 113.065 118.6 113.012 118.56C112.958 118.507 112.885 118.473 112.792 118.46L111.912 118.38V118H115.432V118.4L114.672 118.46C114.445 118.473 114.278 118.513 114.172 118.58C114.078 118.647 113.952 118.773 113.792 118.96L110.072 123.56L115.112 131.04C115.232 131.213 115.332 131.333 115.412 131.4C115.492 131.467 115.605 131.507 115.752 131.52L116.552 131.6V132H109.612V131.6L110.412 131.52C110.585 131.507 110.672 131.44 110.672 131.32C110.672 131.213 110.632 131.113 110.552 131.02L107.352 126.28L103.612 131.06C103.545 131.153 103.512 131.227 103.512 131.28C103.512 131.347 103.538 131.407 103.592 131.46C103.645 131.5 103.718 131.527 103.812 131.54L104.692 131.62V132H101.172V131.6L101.932 131.54C102.158 131.527 102.325 131.48 102.432 131.4C102.552 131.32 102.678 131.2 102.812 131.04L107.012 125.76L102.432 118.96C102.312 118.787 102.212 118.667 102.132 118.6C102.052 118.533 101.938 118.493 101.792 118.48L100.992 118.4V118H107.932V118.4L107.132 118.48C106.958 118.493 106.872 118.56 106.872 118.68C106.872 118.773 106.912 118.873 106.992 118.98L109.712 123.04L112.992 118.94ZM118.219 131.44C118.419 131.4 118.546 131.353 118.599 131.3C118.666 131.247 118.699 131.147 118.699 131V119C118.699 118.853 118.666 118.753 118.599 118.7C118.546 118.647 118.419 118.6 118.219 118.56L117.479 118.4V118H129.799V121.9H129.299C129.019 121.033 128.752 120.38 128.499 119.94C128.259 119.5 127.919 119.167 127.479 118.94C127.039 118.713 126.419 118.6 125.619 118.6H122.779V124.54H127.939V125.14H122.779V131.4H125.819C126.606 131.4 127.226 131.28 127.679 131.04C128.132 130.8 128.486 130.453 128.739 130C129.006 129.547 129.279 128.887 129.559 128.02H130.079V132H117.479V131.6L118.219 131.44ZM133.094 119C133.094 118.853 133.06 118.753 132.994 118.7C132.94 118.647 132.814 118.6 132.614 118.56L131.874 118.4V118H138.514V118.4L137.654 118.58C137.454 118.62 137.32 118.667 137.254 118.72C137.2 118.773 137.174 118.873 137.174 119.02V131.4H139.694C140.48 131.4 141.094 131.28 141.534 131.04C141.974 130.8 142.314 130.46 142.554 130.02C142.807 129.58 143.087 128.913 143.394 128.02H143.954V132H131.874V131.6L132.614 131.44C132.814 131.4 132.94 131.353 132.994 131.3C133.06 131.247 133.094 131.147 133.094 131V119ZM157.053 118.94C157.08 118.86 157.093 118.813 157.093 118.8C157.093 118.707 157.053 118.633 156.973 118.58C156.893 118.513 156.8 118.473 156.693 118.46L155.753 118.38V118H159.073V118.4L158.453 118.46C158.24 118.473 158.093 118.52 158.013 118.6C157.933 118.667 157.84 118.787 157.733 118.96L153.913 125.52V131C153.913 131.147 153.94 131.247 153.993 131.3C154.06 131.353 154.193 131.4 154.393 131.44L155.133 131.6V132H148.613V131.6L149.353 131.44C149.553 131.4 149.68 131.353 149.733 131.3C149.8 131.247 149.833 131.147 149.833 131V125.64L146.153 118.96C146.06 118.8 145.973 118.687 145.893 118.62C145.813 118.54 145.706 118.493 145.573 118.48L144.793 118.4V118H151.293V118.4L150.493 118.48C150.306 118.493 150.213 118.573 150.213 118.72C150.213 118.8 150.24 118.887 150.293 118.98L153.493 125.02L157.053 118.94Z" fill="url(#paint1_linear_22_13)"/>
</g>
<defs>
<linearGradient id="paint0_linear_22_13" x1="13.727" y1="121.299" x2="148.663" y2="-14.3336" gradientUnits="userSpaceOnUse">
<stop stop-color="#3BA5F0"/>
<stop offset="1" stop-color="#496BF2"/>
</linearGradient>
<linearGradient id="paint1_linear_22_13" x1="0" y1="125" x2="163" y2="125" gradientUnits="userSpaceOnUse">
<stop stop-color="#3BA5F0"/>
<stop offset="1" stop-color="#496BF2"/>
</linearGradient>
<clipPath id="clip0_22_13">
<rect width="163" height="141" fill="white"/>
</clipPath>
</defs>
</svg>
